<svg id="Warstwa_1" data-name="Warstwa 1" xmlns="http://www.w3.org/2000/svg" viewBox="0 0 887.3 623.98"><defs><style>.cls-1{fill:#fff;}.cls-2{fill:#dfd8cc;}.cls-3{fill:#263029;}</style></defs><path class="cls-1" d="M746.07,380.18c-4.79-.5-9.63-1-14.48-1.5-4-.39-8-.39-11.91-1.16-5.53-1.09-10.94-2.69-16.4-4.1-10-3.91-38.09-20.57-41.32-22.7,1.8-17.1,10.55-33.64,8.28-53.52-7.11,4.32-12.71,7.75-18.34,11.14-9.34,5.62-18.61,11.37-28.08,16.77-7.76,4.43-17.15,2.6-23.63-3.4-6-5.52-12.32-10.65-18.57-15.88a3.27,3.27,0,0,0-1-1.37,241.07,241.07,0,0,0-48.9-29.89c-.92-.76-1.89-1.44-2.87-2.11-9.25-6.26-18.77-12.18-27.63-18.93-5.1-3.89-10.12-5.79-16.61-5.64a43.58,43.58,0,0,1-14-2.21c-14.81-4.71-29.2-10.92-44.27-14.53-13.31-3.19-26.66-5.36-39.31-11.19-15.87-7.3-32.35-13.3-45.85-24.7a39.17,39.17,0,0,0-6.09-4.27c-16.82-9.35-33.54-18.89-50.61-27.79-5.9-3.07-12.63-4.73-19.12-6.56-4-1.12-8.23-1.27-12.33-2-14-2.44-28-4.6-41.81,1.32-3.77,1.62-8.22,1.73-12,3.32-6.92,2.89-12.67.88-18.09-3.12-15.34-11.3-27.66-25-33.87-43-3.33-9.64-6-19.52-8.44-29.41-6.17-24.94-15.54-47.94-35.65-66C89.53,5.55,73.63.31,55.74,0,46.29-.15,38.69,1.7,35.65,13.62,34.79,17,32,19.88,30.34,23.08s-3.13,6.38-4.68,9.58l1.31.59,4.9-5.88,20.2,7.18-7.93,6.6h12c0,.41,0,.82-.07,1.22l-5.89.26c-.1.38-.2.76-.31,1.13l10.48,4.49c-.2.37-.4.75-.59,1.13L44.23,51c8.4,7.42,20.48,10.32,21.86,23.33l-7-.69c6.95,7,15.66,11.23,17.27,21.54L71,91.51l-1.49,1.4,12.79,13.48-9.44-.86,9.52,19.27c-.3.65-1.36,2-1.06,2.41A31.71,31.71,0,0,0,87,133.62c6.93,5.43,7,6.35-1,11.91,2.15,2.42,4.18,4.8,6.34,7.07,1.26,1.33,3.89,2.52,3.86,3.72-.13,5.06,4,5.73,7.14,7.22,5.27,2.46,12.07,3.4,15.72,7.23,5.7,6,12.28,8,19.82,9.1.34,0,.63.47,1.23.95l-3.85,2.84a43,43,0,0,0,5.55,4.12c4.32,2.28,4.79,5,1.12,8.47-2.27,2.11-4.8,4-6.7,6.42-1.19,1.5-1.42,3.71-2.08,5.6l1.39.38,9.78-9.27c-.12,6.53,2.18,11.85-2.57,17-2,2.1-1.35,6.44-1.91,9.75l1,.23,4.27-5.36v18.86c-1.12,4.05-3.06,7.08-2.48,9.56,4.28,18.31,4.22,36.82,4.2,55.45l4.39-1.1c-1.69,3.79-2.38,7.46-4.56,9.86-7.74,8.53-14.72,17.88-25.65,23.22-7.48,3.66-7.3,4-7.34-3.84,0-.59-.94-1.18-1.72-2.1l-5.75,4.71,1.59.46c0,1.21.45,2.68-.08,3.61-2.35,4.07-5.34,7.82-7.41,12a158.7,158.7,0,0,0-6.06,15.14c-.19.52.54,1.36.89,2.16l3.7-3c.87,2.6.11,4.53,0,6.51a17.23,17.23,0,0,0,.43,6.69c1,2.9,3,5.46,4,8.35,2.21,6.13,3.59,12.58,6.18,18.55,4.51,10.42,9.69,20.58,14.7,31.09,0,0,52.84,1.57,64.47,1.63,9.16,0,11.63-3.09,9.42-11.92-1.73-6.86-7.41-11.43-15.05-11.56-10.65-.18-21.3,0-32.73,0-1.3-2.85-3-6.52-4.65-10.24-6-14-5.79-15.17,5.29-25.48,9.23-8.58,16.94-18.95,30.29-22.47,5.25-1.39,10.13-4.1,15.63-6.4-1.11,17.62,1.79,23.68,16.4,26.87,23,5,41.22,18.86,61.35,29.19,5.6,2.88,11.33,5.84,17.37,7.5,5.57,1.54,11.62,1.46,17.46,1.94,1.18.1,2.4-.54,3.62-.75,3.25-.55,6.49-1.28,9.76-1.51,4-.27,8,.13,11.94-.19,6.44-.51,11.08-4.94,11.78-10.78.64-5.43-2.87-11.37-8.85-12.41-10.39-1.81-21-2.75-31.46-4a185.86,185.86,0,0,1-17.93-7.37,5.8,5.8,0,0,0-.73-.28c-4.51-3.53-9.09-6.9-13.78-10.09a37.33,37.33,0,0,0-10.41-4.74c-8.19-2.38-17.29-14.77-14.5-21.55a53.49,53.49,0,0,1,9.26-14.18,49.27,49.27,0,0,1,11.49-9.33c6.83-4.15,14.26-7.37,21.1-11.5,12.11-7.3,29.8-5.61,39.91,4.3,5,4.91,9.16,11,14.94,14.68,11,7,17.61,15.5,15.45,28.92,7.8-1.53,5.61,5.09,6.9,8.06,1.58,3.65,1.22,8.1,1.69,12.16l7.59.62c-1.17,5.15,3.62,9.94-1,15-1.26,1.38-.19,4.77-.19,7.24l1.56,0,1.13-7.91,13.16-.8c.3,1,1.76,3.46,1.66,5.85-.21,4.54-1.31,9-2.31,15.23l4.08-2.43c1,2.45,2,4.94,2.95,7.42l1.15-.45-2-8,1.58-.59c2.41,4.8,4.85,9.59,7.24,14.4,2.88,5.78,5.13,12.17,12.53,14,5.14,1.27,10.4,3,15.61,3,21.23-.06,42.47-.64,63.71-.94,4-2.32,8.83-3.66,12.93-4.8A172.79,172.79,0,0,1,562,426.32c9,.22,22.59,1.06,29.23,8.25l.55-.07c7.36-.95,9.77.8,10.21,8,.21,3.53.63,8.13,2.92,10.27,9.72,9.09,19.7,6.85,25.8-5.09,4.14-8.1,2.57-16-2.07-25,4.22.79,7.15,1.57,10.13,1.85,7.59.71,15.21,1.71,22.8,1.63,8.41-.08,16.8-1.5,25.22-1.82,7.31-.29,14.74-.51,22,.43,8.64,1.12,11.39-5.36,17.83-10-5-.93-8.29-1.33-11.41-2.17a86.2,86.2,0,0,1-8.17-3c.23-.47.45-.94.68-1.42l31.73-2.49c.59-2.22.41-5.45,1.94-6.66C747.49,394.15,746.57,387.94,746.07,380.18Z"/><rect class="cls-2" x="806" y="376.72" width="55.86" height="55.86" rx="2.78"/><polygon class="cls-2" points="0 503.77 28.02 503.77 28.02 585.33 50.19 585.33 50.19 503.77 78.21 503.77 78.21 481.63 0 481.63 0 503.77"/><path class="cls-2" d="M132.19,503.15H84.48V523h47.57c5.91,0,8.9,2.78,8.9,8.26v3.42H107.87c-18.8,0-27.94,8.08-27.94,24.69,0,17,9.61,26,27.8,26h35.13c15.16,0,18.12-6.59,18.12-18V531.06C161,513.32,150.49,503.15,132.19,503.15ZM141,551.8v12.06a2.54,2.54,0,0,1-.21,1.34,2.81,2.81,0,0,1-1.29.18H107.87c-5.54,0-7.91-2.08-7.91-6.94,0-4.1,1.37-6.64,8.19-6.64Z"/><path class="cls-2" d="M225,543.35c4.41-3.06,7.31-7.25,10.07-12.37l15-27.83H227.85l-13.24,24.63c-3.74,7-4.81,7.44-16.43,7.44h-4.35v-65.6H173.51V585.33h20.32V553.11h4.35c12.86,0,14.55,1.22,18.29,8l13.24,24.17h22.84l-15.5-27.87C233.26,550.74,229.92,546.14,225,543.35Z"/><path class="cls-3" d="M297.28,484.85H276.82v18.3H266.58V523h10.24v33.29c0,20.66,7.18,29.09,24.81,29.09h16.13V566.26h-13c-5.18,0-7.48-1.32-7.48-9.14V523H318v-19.8H297.28Z"/><path class="cls-3" d="M371.32,503.15H355.53c-22.37,0-35.2,15-35.2,41.09s12.83,41.09,35.2,41.09h15.79c22.36,0,35.19-15,35.19-41.09S393.68,503.15,371.32,503.15Zm14.73,41.09c0,17.54-6.46,21.14-16.15,21.14H357c-9.7,0-16.15-3.6-16.15-21.14S347.25,523,357,523H369.9C378.29,523,386.05,525.53,386.05,544.24Z"/><path class="cls-2" d="M470.12,535.22H452.48c-7.49,0-8.05-2.34-8.05-5.92,0-4.68,1.89-6.35,7.2-6.35h44.15v-19.8H451.49c-17.72,0-27.09,8.64-27.09,25,0,16.58,9.59,25,28.51,25h17.78c6.84,0,8.05,2,8.05,6.21s-1.08,6.06-7.2,6.06H425.25v20h46.29c17.56,0,27.23-9.19,27.23-25.86C498.77,543.37,489.13,535.22,470.12,535.22Z"/><rect class="cls-2" x="507.74" y="503.15" width="20.32" height="82.17"/><rect class="cls-2" x="507.74" y="474.02" width="20.46" height="22.88"/><path class="cls-2" d="M592.29,554c18.89,0,28.08-8.07,28.08-24.69,0-17.1-9.66-26.15-27.94-26.15H568.11c-18.3,0-28.8,10.17-28.8,27.91v26.36c0,17.73,10.5,27.91,28.8,27.91h24.08l-.82.32c-9.61,4-14.08,9.91-14.08,18.77,0,11.88,8.4,19.56,21.4,19.56h20.68V604.47h-16c-4.64,0-7.19-2.25-7.19-6.35,0-3.24,1.56-5.28,5.33-7l15.15-6.66v-3.35l1.61-.62h-1.61V565.38H568.11c-6,0-8.9-2.7-8.9-8.26V554Zm-24.18-31h24.18c5.49,0,8.05,2.3,8.05,7.23,0,4.08-1.45,6.79-8.48,6.79H559.21v-5.76C559.21,525.73,562.2,523,568.11,523Z"/><path class="cls-3" d="M694.66,481.63H681.57c-21,0-46,9-46,52.07,0,42.67,25,51.63,46,51.63h13.09c21,0,46-9,46-51.63C740.66,490.66,715.64,481.63,694.66,481.63Zm0,81.55H681.57c-17.25,0-24-8.26-24-29.48s6.95-29.93,24-29.93h13.09c16.93,0,23.83,8.63,23.83,29.78C718.49,558.14,709,563.18,694.66,563.18Z"/><path class="cls-3" d="M801.75,503.15H771.08V469.62H750.77V549.8c0,29.36,16.43,35.53,30.21,35.53h20.77c22.27,0,35-15,35-41.09S824,503.15,801.75,503.15ZM771.08,523h29.1c9.7,0,16.16,3.62,16.16,21.29s-6.46,21.14-16.16,21.14H785.39c-10.56,0-14.31-4.27-14.31-16.31Z"/><rect class="cls-3" x="846.05" y="503.15" width="20.32" height="82.17"/><rect class="cls-3" x="825.12" y="389.58" width="62.18" height="62.18" rx="3.01"/><path class="cls-2" d="M745.76,380.18c-4.79-.5-9.63-1-14.48-1.5-4-.39-8-.39-11.91-1.16-5.63-1.11-11.15-2.76-16.71-4.18a4.8,4.8,0,0,0,3.17,2.79c8.24,3.43,17.37,5.81,21.25,14.89.84,2,1,5.35-.16,6.67-1.43,1.61-4.73,2.57-7,2.31-3.44-.37-6.67-2.28-10.1-3.14-10.13-2.53-20.29-4.18-27.49-13.25s-8.62-13.52-2.85-21.16l-17.78-11.73c1.8-17.1,10.55-33.64,8.28-53.52-7.11,4.32-12.71,7.75-18.35,11.14-9.34,5.62-18.6,11.37-28.07,16.77-7.76,4.43-17.15,2.6-23.63-3.4-6.69-6.18-13.87-11.87-20.83-17.78l-1.46,1.1c2.52,4.55,4.62,9.41,7.79,13.49,1.27,1.65,4.91,1.48,7.4,2.35,10.18,3.57,15.55,12.7,14,22.58a13.77,13.77,0,0,0,1.33,8.26c5.42,10.05,2.16,21.27-8.07,26.7-7,3.7-13.84,6.82-22.25,7.2-20.42.9-40.77,3.09-61.18,4.19a31.06,31.06,0,0,1-20.45-6.1c12,.12,18.72-6.87,25-13.38,7.13-7.41,12-16.07,11.59-27.34-.38-9.65-4.24-18-8.65-25.68-7.71-13.4-17.1-25.94-26.5-38.33-6.28-8.28-13.79-15.68-22.1-25,5.69.24,10.42-.72,14,.83C499,259,508.19,264.16,517.48,269c5.78,3,11.48,6.22,17.21,9.34-1.54-2.8-3.84-4.36-6.14-5.92-9.25-6.26-18.77-12.18-27.63-18.93-5.1-3.89-10.12-5.79-16.61-5.64a43.58,43.58,0,0,1-14-2.21c-14.81-4.71-29.2-10.92-44.27-14.53C412.75,228,399.4,225.79,386.75,220c-15.87-7.3-32.35-13.3-45.85-24.7a39.17,39.17,0,0,0-6.09-4.27C318,181.64,301.27,172.1,284.2,163.2c-5.9-3.07-12.63-4.73-19.12-6.56-4-1.12-8.23-1.27-12.33-2-14-2.44-28-4.6-41.81,1.32-3.77,1.61-8.22,1.73-12,3.32-6.92,2.89-12.67.88-18.09-3.12-15.35-11.3-27.67-25-33.87-43-3.33-9.64-6-19.52-8.44-29.41-6.17-24.94-15.54-47.94-35.65-66C89.22,5.55,73.32.31,55.43,0,46-.15,38.38,1.7,35.34,13.62,34.48,17,31.73,19.88,30,23.08s-3.12,6.38-4.67,9.58l1.31.59,4.9-5.88,20.2,7.18-7.93,6.6h12c0,.41,0,.82-.07,1.22l-5.89.26c-.1.38-.21.76-.31,1.13l10.48,4.49-.59,1.13L43.92,51c8.4,7.42,20.48,10.32,21.86,23.33l-7-.69c6.95,7,15.66,11.23,17.27,21.54l-5.33-3.66-1.49,1.4L82,106.39l-9.44-.86,9.52,19.27c-.3.65-1.36,2-1.06,2.41a31.71,31.71,0,0,0,5.63,6.41c6.92,5.43,7,6.35-1,11.91,2.15,2.42,4.18,4.8,6.34,7.07,1.26,1.33,3.89,2.52,3.86,3.72-.13,5.06,4,5.73,7.14,7.22,5.27,2.46,12.07,3.4,15.72,7.23,5.7,6,12.28,8,19.82,9.1.34,0,.63.47,1.23.95L136,183.66a43,43,0,0,0,5.55,4.12c4.32,2.28,4.79,5,1.12,8.47-2.27,2.11-4.8,4-6.7,6.42-1.19,1.5-1.42,3.71-2.08,5.6l1.39.38,9.78-9.27c-.12,6.53,2.18,11.85-2.57,17-2,2.1-1.35,6.44-1.91,9.75l1,.23L145.8,221v18.86c-1.12,4.05-3.06,7.08-2.48,9.56,4.28,18.32,4.22,36.82,4.2,55.45l4.39-1.1c-1.69,3.79-2.38,7.46-4.56,9.86-7.74,8.53-14.72,17.88-25.65,23.22-7.48,3.66-7.3,4-7.34-3.84,0-.59-.94-1.18-1.72-2.1l-5.75,4.71,1.59.46c0,1.21.45,2.68-.08,3.61-2.35,4.07-5.34,7.82-7.41,12a156.11,156.11,0,0,0-6.06,15.14c-.19.52.54,1.36.89,2.16l3.7-3c.87,2.6.11,4.53,0,6.51a17.23,17.23,0,0,0,.43,6.69c1,2.9,3,5.46,4,8.35,2.21,6.13,3.59,12.58,6.17,18.55,4.52,10.42,9.7,20.58,14.71,31.09h6.93c-3.3-4.1-7.83-8-10-12.9-3.48-7.69-4.89-16.23-8.06-24.07-5.94-14.66-4.87-30-5.46-45.16a11.37,11.37,0,0,1,12-12.1c7,.16,13,6.51,12.49,13.36-.13,1.81-1.15,3.67-.86,5.37,2.35,14,4.31,28.06,7.7,41.81,1.48,6,5.78,11.46,9.33,16.82.87,1.32,4.3,2.37,5.75,1.76,10.49-4.45,21.21-3.61,32-1.82,1.73.29,4.27,1.88,4.53,3.21.4,2.09-.11,5.78-1.49,6.49A26.5,26.5,0,0,1,178,433c-6.18,0-12.37-1.14-18.54-1.92-6.78-.87-12.57.48-16.8,7,3.15.18,6,.45,8.84.47,12.58.11,25.15.15,37.72.22,9.16,0,11.63-3.09,9.42-11.92-1.73-6.86-7.41-11.43-15.05-11.56-10.65-.18-21.3,0-32.73,0-1.3-2.85-3-6.52-4.65-10.24-6-14-5.79-15.17,5.29-25.48,9.23-8.58,16.94-18.95,30.29-22.47,5.25-1.39,10.13-4.1,15.63-6.4-1.11,17.62,1.79,23.68,16.39,26.87,23,5,41.23,18.86,61.36,29.19,5.6,2.88,11.33,5.84,17.37,7.5,5.56,1.54,11.61,1.46,17.46,1.94,1.18.1,2.4-.54,3.62-.75,3.25-.55,6.49-1.28,9.76-1.51,4-.27,8,.13,11.94-.19,6.44-.51,11.08-4.94,11.78-10.78.64-5.43-2.87-11.37-8.85-12.41-11-1.9-22.08-2.83-33.14-4.17-.26.43-.51.86-.77,1.28,2.17,1.39,4.17,3.52,6.53,4,4.85,1,9.91.92,14.85,1.53,2.63.32,5.9.39,7.61,1.92,2,1.82,2.73,5.07,4,7.71-2.26.91-4.51,2.56-6.79,2.61-12.37.26-24.75.37-37.1,0a28.27,28.27,0,0,1-12.45-3c-9.7-5.38-18.94-11.56-28.4-17.35a9.07,9.07,0,0,0-3.93-1.42c-11.34-.71-20.2-6.4-28.77-13-3-2.27-6.77-3.48-9.94-5.55a8.51,8.51,0,0,1-3.09-4.18c-.53-1.56,0-3.43-.18-5.13-.55-4.84,2.05-6.77,6.53-8,6.51-1.72,12.79-4.26,19.3-6,2.27-.61,6.3-.88,7.13.3a33.19,33.19,0,0,1,5.78,12.35c1,5.39,2.49,9.53,8.64,10.64a13.45,13.45,0,0,1,3.47,1.19c7.11,3.4,15,4.66,21.4,10.24,4.82,4.22,11.68,6.25,17.64,9.26a258.51,258.51,0,0,0-22.22-16.95A37.33,37.33,0,0,0,264,364.11c-8.19-2.38-17.29-14.77-14.5-21.55a53.49,53.49,0,0,1,9.26-14.18,49.06,49.06,0,0,1,11.49-9.33c6.83-4.15,14.25-7.37,21.1-11.5,12.11-7.3,29.8-5.61,39.91,4.3,5,4.91,9.16,11,14.94,14.68,11,7,17.61,15.5,15.45,28.92,7.8-1.53,5.61,5.09,6.89,8.06,1.59,3.65,1.23,8.1,1.7,12.16l7.59.62c-1.17,5.15,3.62,9.94-1,15-1.26,1.38-.19,4.77-.19,7.24l1.56,0,1.13-7.91,13.15-.8c.31,1,1.77,3.46,1.67,5.85-.21,4.54-1.31,9-2.31,15.23l4.08-2.43c1,2.45,2,4.94,2.95,7.42l1.15-.45-2-8,1.58-.59c2.41,4.8,4.85,9.59,7.24,14.4,2.88,5.78,5.13,12.17,12.53,14,5.14,1.27,10.4,3,15.61,3,21.23-.06,42.47-.64,63.71-.94,4-2.32,8.83-3.66,12.93-4.8a172.79,172.79,0,0,1,50.07-6.13c9,.22,22.59,1.06,29.23,8.25l.55-.07c7.36-.95,9.77.8,10.21,8,.21,3.53.63,8.13,2.92,10.27,9.72,9.08,19.7,6.85,25.8-5.09,4.14-8.1,2.57-16-2.07-25,4.22.79,7.15,1.57,10.13,1.85,7.59.71,15.21,1.71,22.8,1.63,8.41-.08,16.8-1.5,25.22-1.82,7.31-.29,14.74-.51,22,.43,8.64,1.12,11.39-5.36,17.83-10-5-.93-8.29-1.33-11.41-2.17a86.2,86.2,0,0,1-8.17-3c.22-.47.45-.94.68-1.42l31.73-2.49c.59-2.22.41-5.45,1.94-6.66C747.18,394.15,746.26,387.94,745.76,380.18ZM102.24,51.64c-2.43-2-4.3-4.74-6.85-7.69-7.54,10.48-10.67-2.24-16.75-1.36a7.78,7.78,0,0,1,.22,2.1c-.33,2-.8,3.91-1.22,5.86-1.52-1.18-3.48-2.08-4.46-3.58C70,42,68,36,63.87,32.09c-3.73-3.46-9.77-4.56-14.79-6.7-1.89-.8-3.8-1.57-5.69-2.36l4.87-3.28-2.49-4.56A37.71,37.71,0,0,1,51.07,13c12.6-3,24.3-1.14,35.05,6.11a15.92,15.92,0,0,0,4.68,1.63c9.51,2.6,9,2.66,10.38,12,.73,4.95,3.72,9.56,5.46,14.4.52,1.45.29,3.16.41,4.75C105.41,51.87,103.2,52.45,102.24,51.64ZM144.71,381.3l-1.38-1.2c3.28-7.08,9.26-11.82,15.11-16.69l1.45,1.26Zm479.84,65.64c-2.6,5-6.73,6.94-12.92,5,0-6.53.37-12.66-.19-18.71-.22-2.36-2-5.53-4-6.61-6.27-3.34-13.51-5.09-19.44-8.85-9.84-6.22-20.35-4.7-30.89-4.35-2.07.07-4.14.45-6.21.58-9.15.56-18.23-1.23-27.16,4.22-4.76,2.9-12.32,1.39-18.59,2.07-2.08.22-4.09,1.05-7.74,2l4.68,2.16c-.75.52-1.22,1.11-1.66,1.1-9.5-.3-19.24.47-28.44-1.34-9.83-1.93-16-14.31-13.46-23.24,3.17-11,12.37-16.57,24.06-13.18,11.5,3.34,22.88,5.57,35,5,3.47-.16,8,1.88,10.41,4.39,3.19,3.33,6.33,3.74,10,2.56a97.18,97.18,0,0,1,39.43-4.19c5.15.48,10.24,2.75,15.06,4.85s8.82,5.4,13.58,7.27c5.71,2.25,10.65,4.73,14.62,9.73C627.07,425.52,629.32,437.85,624.55,446.94Z"/></svg>